General
Complete name                    : D:\\Videos\\HD Music videos  Pack 3\\Lil Wayne\\Young Money - Bed Rock.flv
Format                           : Flash Video
File size                        : 46.6 MiB
Duration                         : 4mn 51s
Overall bit rate                 : 1 338 Kbps

Video
Format                           : AVC
Format/Info                      : Advanced Video Codec
Format profile                   : Main@L3.1
Format settings, CABAC           : Yes
Format settings, ReFrames        : 3 frames
Muxing mode                      : Container profile=Unknown@3.1
Duration                         : 4mn 51s
Bit rate                         : 1 202 Kbps
Width                            : 854 pixels
Height                           : 480 pixels
Display aspect ratio             : 16:9
Frame rate mode                  : Constant
Frame rate                       : 30.000 fps
Color space                      : YUV
Chroma subsampling               : 4:2:0
Bit depth                        : 8 bits
Scan type                        : Progressive
Bits/(Pixel*Frame)               : 0.098
Stream size                      : 41.8 MiB (90%)

Audio
Format                           : AAC
Format/Info                      : Advanced Audio Codec
Format version                   : Version 4
Format profile                   : LC
Format settings, SBR             : No
Duration                         : 4mn 51s
Bit rate                         : 129 Kbps
Channel(s)                       : 2 channels
Channel positions                : Front: L R
Sampling rate                    : 44.1 KHz
Bit depth                        : 16 bits
Stream size                      : 4.50 MiB (10%)






neways..

In Here WE SHARE CZ ITS OUR DUTY..

SO DOWNLOAD AND SHARE.. 

REDCHAIN55 ASSURES THE BEST QUALITY VIRUS FREE FILES..
		